  0
SECTION
  2
BLOCKS
  0
ENDSEC
  0
SECTION
  2
ENTITIES
  0
LWPOLYLINE
  8
0
  90
90
  70
1
 10
4.400139387164859
 20
-9.14432903506742
 30
0.0
 10
5.092958178940651
 20
-8.821262326748673
 30
0.0
 10
5.719151551349604
 20
-8.382797007010966
 30
0.0
 10
5.763215609682438
 20
-8.253962319368382
 30
0.0
 10
5.724666304227088
 20
-6.279113025580092
 30
0.0
 10
5.333595637018474
 20
-5.266591588100186
 30
0.0
 10
5.204956880596064
 20
-5.119225144618908
 30
0.0
 10
4.305574280002831
 20
-4.623113571417529
 30
0.0
 10
3.798051746190531
 20
-3.5074977637036038
 30
0.0
 10
4.936608040179694
 20
-1.5354604152370537
 30
0.0
 10
6.156520937429584
 20
-1.4171799186545941
 30
0.0
 10
7.035857463230073
 20
-1.948012311889346
 30
0.0
 10
7.227799925161433
 20
-1.9857335211217533
 30
0.0
 10
8.300204545499668
 20
-1.8181499348593895
 30
0.0
 10
10.02974885529376
 20
-0.8641099657878202
 30
0.0
 10
10.119290938514457
 20
-0.7615320280564521
 30
0.0
 10
10.185916357881302
 20
-1.152669944832014e-15
 30
0.0
 10
10.119290938514457
 20
0.7615320280564555
 30
0.0
 10
10.029748855293763
 20
0.8641099657878202
 30
0.0
 10
8.300204545499671
 20
1.8181499348593873
 30
0.0
 10
7.227799925161429
 20
1.9857335211217513
 30
0.0
 10
7.035857463230073
 20
1.9480123118893444
 30
0.0
 10
6.156520937429599
 20
1.4171799186545804
 30
0.0
 10
4.936608040179696
 20
1.5354604152370446
 30
0.0
 10
3.7980517461905388
 20
3.5074977637035984
 30
0.0
 10
4.305574280002836
 20
4.623113571417509
 30
0.0
 10
5.204956880596066
 20
5.119225144618906
 30
0.0
 10
5.33359563701848
 20
5.266591588100188
 30
0.0
 10
5.724666304227089
 20
6.279113025580087
 30
0.0
 10
5.763215609682436
 20
8.253962319368378
 30
0.0
 10
5.7191515513496
 20
8.382797007010966
 30
0.0
 10
5.092958178940653
 20
8.82126232674867
 30
0.0
 10
4.400139387164855
 20
9.144329035067422
 30
0.0
 10
4.266533245611327
 20
9.118072285156202
 30
0.0
 10
2.5755382412725853
 20
8.09726296043948
 30
0.0
 10
1.894204288142956
 20
7.252325109221936
 30
0.0
 10
1.8309005826340106
 20
7.067237456508251
 30
0.0
 10
1.8509466574267694
 20
6.040293490072109
 30
0.0
 10
1.138556293989165
 20
5.042958178940649
 30
0.0
 10
-1.1385562939891547
 20
5.042958178940653
 30
0.0
 10
-1.850946657426748
 20
6.040293490072103
 30
0.0
 10
-1.830900582634006
 20
7.067237456508253
 30
0.0
 10
-1.894204288142953
 20
7.2523251092219425
 30
0.0
 10
-2.5755382412725782
 20
8.097262960439478
 30
0.0
 10
-4.266533245611323
 20
9.118072285156202
 30
0.0
 10
-4.400139387164854
 20
9.144329035067422
 30
0.0
 10
-5.09295817894065
 20
8.821262326748673
 30
0.0
 10
-5.719151551349603
 20
8.382797007010966
 30
0.0
 10
-5.763215609682437
 20
8.253962319368382
 30
0.0
 10
-5.724666304227087
 20
6.279113025580093
 30
0.0
 10
-5.333595637018473
 20
5.266591588100187
 30
0.0
 10
-5.204956880596063
 20
5.119225144618909
 30
0.0
 10
-4.30557428000283
 20
4.62311357141753
 30
0.0
 10
-3.7980517461905308
 20
3.507497763703604
 30
0.0
 10
-4.936608040179694
 20
1.5354604152370543
 30
0.0
 10
-6.156520937429584
 20
1.4171799186545948
 30
0.0
 10
-7.035857463230073
 20
1.9480123118893469
 30
0.0
 10
-7.227799925161433
 20
1.9857335211217542
 30
0.0
 10
-8.300204545499668
 20
1.8181499348593906
 30
0.0
 10
-10.02974885529376
 20
0.8641099657878214
 30
0.0
 10
-10.119290938514457
 20
0.7615320280564534
 30
0.0
 10
-10.185916357881302
 20
4.705383623632515e-15
 30
0.0
 10
-10.119290938514458
 20
-0.7615320280564519
 30
0.0
 10
-10.029748855293764
 20
-0.8641099657878166
 30
0.0
 10
-8.300204545499673
 20
-1.8181499348593837
 30
0.0
 10
-7.227799925161429
 20
-1.9857335211217477
 30
0.0
 10
-7.035857463230074
 20
-1.9480123118893409
 30
0.0
 10
-6.156520937429599
 20
-1.4171799186545777
 30
0.0
 10
-4.936608040179696
 20
-1.5354604152370426
 30
0.0
 10
-3.79805174619054
 20
-3.507497763703597
 30
0.0
 10
-4.305574280002838
 20
-4.623113571417507
 30
0.0
 10
-5.204956880596068
 20
-5.119225144618904
 30
0.0
 10
-5.333595637018481
 20
-5.2665915881001855
 30
0.0
 10
-5.724666304227091
 20
-6.279113025580084
 30
0.0
 10
-5.7632156096824385
 20
-8.253962319368377
 30
0.0
 10
-5.719151551349603
 20
-8.382797007010964
 30
0.0
 10
-5.092958178940649
 20
-8.821262326748673
 30
0.0
 10
-4.400139387164852
 20
-9.144329035067422
 30
0.0
 10
-4.266533245611325
 20
-9.118072285156202
 30
0.0
 10
-2.5755382412725827
 20
-8.097262960439481
 30
0.0
 10
-1.8942042881429533
 20
-7.252325109221938
 30
0.0
 10
-1.830900582634008
 20
-7.067237456508253
 30
0.0
 10
-1.8509466574267672
 20
-6.04029349007211
 30
0.0
 10
-1.1385562939891631
 20
-5.0429581789406495
 30
0.0
 10
1.1385562939891563
 20
-5.042958178940652
 30
0.0
 10
1.8509466574267504
 20
-6.040293490072104
 30
0.0
 10
1.8309005826340088
 20
-7.067237456508253
 30
0.0
 10
1.894204288142956
 20
-7.252325109221942
 30
0.0
 10
2.575538241272581
 20
-8.097262960439478
 30
0.0
 10
4.266533245611327
 20
-9.1180722851562
 30
0.0
  0
LWPOLYLINE
  8
0
  90
30
  70
1
 10
0.41582338163551874
 20
-1.9562952014676114
 30
0.0
 10
1.2246063538223773e-16
 20
-2
 30
0.0
 10
-0.41582338163551785
 20
-1.9562952014676114
 30
0.0
 10
-0.8134732861516002
 20
-1.827090915285202
 30
0.0
 10
-1.1755705045849467
 20
-1.6180339887498947
 30
0.0
 10
-1.486289650954788
 20
-1.338261212717717
 30
0.0
 10
-1.7320508075688772
 20
-1.0000000000000002
 30
0.0
 10
-1.9021130325903073
 20
-0.6180339887498946
 30
0.0
 10
-1.9890437907365468
 20
-0.20905692653530608
 30
0.0
 10
-1.9890437907365466
 20
0.20905692653530836
 30
0.0
 10
-1.902113032590307
 20
0.618033988749895
 30
0.0
 10
-1.7320508075688767
 20
1.0000000000000009
 30
0.0
 10
-1.486289650954788
 20
1.338261212717717
 30
0.0
 10
-1.175570504584946
 20
1.6180339887498951
 30
0.0
 10
-0.8134732861516005
 20
1.8270909152852017
 30
0.0
 10
-0.41582338163551824
 20
1.9562952014676114
 30
0.0
 10
1.010639055082363e-15
 20
2
 30
0.0
 10
0.4158233816355185
 20
1.9562952014676114
 30
0.0
 10
0.8134732861516
 20
1.827090915285202
 30
0.0
 10
1.1755705045849465
 20
1.6180339887498947
 30
0.0
 10
1.486289650954789
 20
1.3382612127177158
 30
0.0
 10
1.7320508075688774
 20
0.9999999999999997
 30
0.0
 10
1.9021130325903073
 20
0.6180339887498948
 30
0.0
 10
1.9890437907365468
 20
0.20905692653530678
 30
0.0
 10
1.9890437907365466
 20
-0.2090569265353068
 30
0.0
 10
1.902113032590307
 20
-0.6180339887498948
 30
0.0
 10
1.7320508075688772
 20
-1.0000000000000002
 30
0.0
 10
1.4862896509547883
 20
-1.3382612127177165
 30
0.0
 10
1.1755705045849463
 20
-1.618033988749895
 30
0.0
 10
0.8134732861516004
 20
-1.8270909152852017
 30
0.0
  0
ENDSEC
  0
SECTION
  2
OBJECTS
  0
DICTIONARY
  0
ENDSEC
  0
EOF
